<?xml version="1.0" encoding="UTF-8" standalone="no"?>
<!DOCTYPE svg PUBLIC "-//W3C//DTD SVG 1.0//EN"
 "http://www.w3.org/TR/2001/REC-SVG-20010904/DTD/svg10.dtd" [
 <!ATTLIST svg xmlns:xlink CDATA #FIXED "http://www.w3.org/1999/xlink">
]>
<!-- Generated by Graphviz version 2.12 (Wed Oct 31 09:29:14 UTC 2007)
     For user: (ma1fegan) Nicolas Luis Fernandez Garcia -->
<!-- Title: interpreter.y Pages: 1 -->
<svg width="26.23in" height="15.91in"
 xmlns="http://www.w3.org/2000/svg" xmlns:xlink="http://www.w3.org/1999/xlink">
<g id="graph0" class="graph" transform="scale(1.33333 1.33333) rotate(0) translate(4 1142)">
<title>interpreter.y</title>
<polygon style="fill:white;stroke:white;" points="-4,4 -4,-1142 1885,-1142 1885,4 -4,4"/>
<!-- 0 -->
<g id="node1" class="node"><title>0</title>
<polygon style="fill:none;stroke:black;" points="797,-1138 565,-1138 565,-1082 797,-1082 797,-1138"/>
<text text-anchor="middle" x="681" y="-1120" style="font-family:Nimbus Mono L;font-weight:regular;font-size:11.34pt;">State 0</text>
<text text-anchor="start" x="573" y="-1088" style="font-family:Nimbus Mono L;font-weight:regular;font-size:11.34pt;">  0 $accept: . program $end</text>
</g>
<!-- 1 -->
<g id="node3" class="node"><title>1</title>
<polygon style="fill:none;stroke:black;" points="369,-1006 137,-1006 137,-950 369,-950 369,-1006"/>
<text text-anchor="middle" x="253" y="-988" style="font-family:Nimbus Mono L;font-weight:regular;font-size:11.34pt;">State 1</text>
<text text-anchor="start" x="145" y="-956" style="font-family:Nimbus Mono L;font-weight:regular;font-size:11.34pt;">  0 $accept: program . $end</text>
</g>
<!-- 0&#45;&gt;1 -->
<g id="edge2" class="edge"><title>0&#45;&gt;1</title>
<path style="fill:none;stroke:black;stroke-dasharray:5,2;" d="M590,-1082C520,-1061 426,-1031 354,-1009"/>
<polygon style="fill:black;stroke:black;" points="354.584,-1005.52 344,-1006 352.573,-1012.23 354.584,-1005.52"/>
<a xlink:title="program">
</a>
<a xlink:title="program">
</a>
<text text-anchor="middle" x="559" y="-1050" style="font-family:Nimbus Mono L;font-weight:regular;font-size:11.34pt;">program</text>
</g>
<!-- 2 -->
<g id="node5" class="node"><title>2</title>
<polygon style="fill:none;stroke:black;" points="829,-1030 533,-1030 533,-926 829,-926 829,-1030"/>
<text text-anchor="middle" x="681" y="-1012" style="font-family:Nimbus Mono L;font-weight:regular;font-size:11.34pt;">State 2</text>
<text text-anchor="start" x="541" y="-980" style="font-family:Nimbus Mono L;font-weight:regular;font-size:11.34pt;">  1 program: stmtlist .</text>
<text text-anchor="start" x="541" y="-964" style="font-family:Nimbus Mono L;font-weight:regular;font-size:11.34pt;">  3 stmtlist: stmtlist . &#39;\n&#39;</text>
<text text-anchor="start" x="541" y="-948" style="font-family:Nimbus Mono L;font-weight:regular;font-size:11.34pt;">  4         | stmtlist . exp &#39;\n&#39;</text>
<text text-anchor="start" x="541" y="-932" style="font-family:Nimbus Mono L;font-weight:regular;font-size:11.34pt;">  5         | stmtlist . error &#39;\n&#39;</text>
</g>
<!-- 0&#45;&gt;2 -->
<g id="edge4" class="edge"><title>0&#45;&gt;2</title>
<path style="fill:none;stroke:black;stroke-dasharray:5,2;" d="M681,-1082C681,-1070 681,-1055 681,-1040"/>
<polygon style="fill:black;stroke:black;" points="684.5,-1040 681,-1030 677.5,-1040 684.5,-1040"/>
<a xlink:title="stmtlist">
</a>
<a xlink:title="stmtlist">
</a>
<text text-anchor="middle" x="713" y="-1050" style="font-family:Nimbus Mono L;font-weight:regular;font-size:11.34pt;">stmtlist</text>
</g>
<!-- 0R2 -->
<g id="node7" class="node"><title>0R2</title>
<polygon style="fill:#b2df8a;stroke:black;" points="876,-1002 846.846,-978 876,-954 905.154,-978 876,-1002"/>
<text text-anchor="middle" x="876" y="-972" style="font-family:Nimbus Mono L;font-weight:regular;font-size:11.34pt;">R2</text>
</g>
<!-- 0&#45;&gt;0R2 -->
<g id="edge6" class="edge"><title>0&#45;&gt;0R2</title>
<path style="fill:none;stroke:black;" d="M752,-1082C781,-1069 813,-1051 838,-1030 846,-1022 854,-1012 860,-1003"/>
<polygon style="fill:black;stroke:black;" points="863.365,-1004.26 866,-994 857.541,-1000.38 863.365,-1004.26"/>
</g>
<!-- 3 -->
<g id="node9" class="node"><title>3</title>
<polygon style="fill:none;stroke:black;" points="232,-874 5.68434e-14,-874 1.42109e-14,-818 232,-818 232,-874"/>
<text text-anchor="middle" x="116" y="-856" style="font-family:Nimbus Mono L;font-weight:regular;font-size:11.34pt;">State 3</text>
<text text-anchor="start" x="8" y="-824" style="font-family:Nimbus Mono L;font-weight:regular;font-size:11.34pt;">  0 $accept: program $end .</text>
</g>
<!-- 1&#45;&gt;3 -->
<g id="edge8" class="edge"><title>1&#45;&gt;3</title>
<path style="fill:none;stroke:black;" d="M224,-950C202,-930 174,-903 152,-881"/>
<polygon style="fill:black;stroke:black;" points="154.546,-878.596 145,-874 149.596,-883.546 154.546,-878.596"/>
<a xlink:title="$end">
</a>
<a xlink:title="$end">
</a>
<text text-anchor="middle" x="198" y="-894" style="font-family:Nimbus Mono L;font-weight:regular;font-size:11.34pt;">$end</text>
</g>
<!-- 4 -->
<g id="node11" class="node"><title>4</title>
<polygon style="fill:none;stroke:black;" points="1625,-874 1329,-874 1329,-818 1625,-818 1625,-874"/>
<text text-anchor="middle" x="1477" y="-856" style="font-family:Nimbus Mono L;font-weight:regular;font-size:11.34pt;">State 4</text>
<text text-anchor="start" x="1337" y="-824" style="font-family:Nimbus Mono L;font-weight:regular;font-size:11.34pt;">  5 stmtlist: stmtlist error . &#39;\n&#39;</text>
</g>
<!-- 2&#45;&gt;4 -->
<g id="edge10" class="edge"><title>2&#45;&gt;4</title>
<path style="fill:none;stroke:black;stroke-dasharray:1,5;" d="M829,-928C832,-927 835,-927 838,-926 883,-915 1145,-884 1319,-864"/>
<polygon style="fill:black;stroke:black;" points="1319.4,-867.478 1329,-863 1318.7,-860.512 1319.4,-867.478"/>
</g>
<!-- 5 -->
<g id="node13" class="node"><title>5</title>
<polygon style="fill:none;stroke:black;" points="608,-174 456,-174 456,-118 608,-118 608,-174"/>
<text text-anchor="middle" x="532" y="-156" style="font-family:Nimbus Mono L;font-weight:regular;font-size:11.34pt;">State 5</text>
<text text-anchor="start" x="464" y="-124" style="font-family:Nimbus Mono L;font-weight:regular;font-size:11.34pt;">  6 exp: NUMBER .</text>
</g>
<!-- 2&#45;&gt;5 -->
<g id="edge12" class="edge"><title>2&#45;&gt;5</title>
<path style="fill:none;stroke:black;" d="M533,-956C457,-941 365,-915 290,-874 275,-865 260,-864 260,-846 260,-846 260,-846 260,-286 260,-201 366,-168 446,-155"/>
<polygon style="fill:black;stroke:black;" points="446.881,-158.393 456,-153 445.508,-151.529 446.881,-158.393"/>
<a xlink:title="NUMBER">
</a>
<a xlink:title="NUMBER">
</a>
<text text-anchor="middle" x="284" y="-560" style="font-family:Nimbus Mono L;font-weight:regular;font-size:11.34pt;">NUMBER</text>
</g>
<!-- 6 -->
<g id="node15" class="node"><title>6</title>
<polygon style="fill:none;stroke:black;" points="547,-874 299,-874 299,-818 547,-818 547,-874"/>
<text text-anchor="middle" x="423" y="-856" style="font-family:Nimbus Mono L;font-weight:regular;font-size:11.34pt;">State 6</text>
<text text-anchor="start" x="307" y="-824" style="font-family:Nimbus Mono L;font-weight:regular;font-size:11.34pt;">  3 stmtlist: stmtlist &#39;\n&#39; .</text>
</g>
<!-- 2&#45;&gt;6 -->
<g id="edge14" class="edge"><title>2&#45;&gt;6</title>
<path style="fill:none;stroke:black;" d="M579,-926C548,-910 515,-893 487,-879"/>
<polygon style="fill:black;stroke:black;" points="488.441,-875.797 478,-874 485.042,-881.916 488.441,-875.797"/>
<a xlink:title="&#39;\\n&#39;">
</a>
<a xlink:title="&#39;\\n&#39;">
</a>
<text text-anchor="middle" x="561" y="-894" style="font-family:Nimbus Mono L;font-weight:regular;font-size:11.34pt;">&#39;\n&#39;</text>
</g>
<!-- 7 -->
<g id="node17" class="node"><title>7</title>
<polygon style="fill:none;stroke:black;" points="777,-874 585,-874 585,-818 777,-818 777,-874"/>
<text text-anchor="middle" x="681" y="-856" style="font-family:Nimbus Mono L;font-weight:regular;font-size:11.34pt;">State 7</text>
<text text-anchor="start" x="593" y="-824" style="font-family:Nimbus Mono L;font-weight:regular;font-size:11.34pt;"> 11 exp: &#39;(&#39; . exp &#39;)&#39;</text>
</g>
<!-- 2&#45;&gt;7 -->
<g id="edge16" class="edge"><title>2&#45;&gt;7</title>
<path style="fill:none;stroke:black;" d="M681,-926C681,-912 681,-897 681,-884"/>
<polygon style="fill:black;stroke:black;" points="684.5,-884 681,-874 677.5,-884 684.5,-884"/>
<a xlink:title="&#39;(&#39;">
</a>
<a xlink:title="&#39;(&#39;">
</a>
<text text-anchor="middle" x="693" y="-894" style="font-family:Nimbus Mono L;font-weight:regular;font-size:11.34pt;">&#39;(&#39;</text>
</g>
<!-- 8 -->
<g id="node19" class="node"><title>8</title>
<polygon style="fill:none;stroke:black;" points="1236,-766 956,-766 956,-646 1236,-646 1236,-766"/>
<text text-anchor="middle" x="1096" y="-748" style="font-family:Nimbus Mono L;font-weight:regular;font-size:11.34pt;">State 8</text>
<text text-anchor="start" x="964" y="-716" style="font-family:Nimbus Mono L;font-weight:regular;font-size:11.34pt;">  4 stmtlist: stmtlist exp . &#39;\n&#39;</text>
<text text-anchor="start" x="964" y="-700" style="font-family:Nimbus Mono L;font-weight:regular;font-size:11.34pt;">  7 exp: exp . &#39;+&#39; exp</text>
<text text-anchor="start" x="964" y="-684" style="font-family:Nimbus Mono L;font-weight:regular;font-size:11.34pt;">  8    | exp . &#39;&#45;&#39; exp</text>
<text text-anchor="start" x="964" y="-668" style="font-family:Nimbus Mono L;font-weight:regular;font-size:11.34pt;">  9    | exp . &#39;*&#39; exp</text>
<text text-anchor="start" x="964" y="-652" style="font-family:Nimbus Mono L;font-weight:regular;font-size:11.34pt;"> 10    | exp . &#39;/&#39; exp</text>
</g>
<!-- 2&#45;&gt;8 -->
<g id="edge18" class="edge"><title>2&#45;&gt;8</title>
<path style="fill:none;stroke:black;stroke-dasharray:5,2;" d="M762,-926C785,-910 808,-892 828,-874 851,-852 848,-838 874,-818 896,-800 921,-784 947,-770"/>
<polygon style="fill:black;stroke:black;" points="948.958,-772.916 956,-765 945.559,-766.797 948.958,-772.916"/>
<a xlink:title="exp">
</a>
<a xlink:title="exp">
</a>
<text text-anchor="middle" x="886" y="-840" style="font-family:Nimbus Mono L;font-weight:regular;font-size:11.34pt;">exp</text>
</g>
<!-- 2R1 -->
<g id="node21" class="node"><title>2R1</title>
<polygon style="fill:#b2df8a;stroke:black;" points="936,-870 906.846,-846 936,-822 965.154,-846 936,-870"/>
<text text-anchor="middle" x="936" y="-840" style="font-family:Nimbus Mono L;font-weight:regular;font-size:11.34pt;">R1</text>
</g>
<!-- 2&#45;&gt;2R1 -->
<g id="edge20" class="edge"><title>2&#45;&gt;2R1</title>
<path style="fill:none;stroke:black;" d="M829,-928C854,-919 873,-912 879,-908 895,-897 909,-882 919,-869"/>
<polygon style="fill:black;stroke:black;" points="921.8,-871.1 925,-861 916.2,-866.9 921.8,-871.1"/>
<a xlink:title="[$end]">
</a>
<a xlink:title="[$end]">
</a>
<text text-anchor="middle" x="920" y="-894" style="font-family:Nimbus Mono L;font-weight:regular;font-size:11.34pt;">[$end]</text>
</g>
<!-- 3R0 -->
<g id="node23" class="node"><title>3R0</title>
<polygon style="fill:#a6cee3;stroke:black;" points="116,-730 81.1837,-706 116,-682 150.816,-706 116,-730"/>
<text text-anchor="middle" x="116" y="-700" style="font-family:Nimbus Mono L;font-weight:regular;font-size:11.34pt;">Acc</text>
</g>
<!-- 3&#45;&gt;3R0 -->
<g id="edge22" class="edge"><title>3&#45;&gt;3R0</title>
<path style="fill:none;stroke:black;" d="M116,-818C116,-795 116,-764 116,-740"/>
<polygon style="fill:black;stroke:black;" points="119.5,-740 116,-730 112.5,-740 119.5,-740"/>
</g>
<!-- 9 -->
<g id="node25" class="node"><title>9</title>
<polygon style="fill:none;stroke:black;" points="1881,-734 1585,-734 1585,-678 1881,-678 1881,-734"/>
<text text-anchor="middle" x="1733" y="-716" style="font-family:Nimbus Mono L;font-weight:regular;font-size:11.34pt;">State 9</text>
<text text-anchor="start" x="1593" y="-684" style="font-family:Nimbus Mono L;font-weight:regular;font-size:11.34pt;">  5 stmtlist: stmtlist error &#39;\n&#39; .</text>
</g>
<!-- 4&#45;&gt;9 -->
<g id="edge24" class="edge"><title>4&#45;&gt;9</title>
<path style="fill:none;stroke:black;" d="M1535,-818C1547,-812 1559,-806 1571,-800 1606,-781 1646,-758 1677,-739"/>
<polygon style="fill:black;stroke:black;" points="1678.96,-741.916 1686,-734 1675.56,-735.797 1678.96,-741.916"/>
<a xlink:title="&#39;\\n&#39;">
</a>
<a xlink:title="&#39;\\n&#39;">
</a>
<text text-anchor="middle" x="1608" y="-786" style="font-family:Nimbus Mono L;font-weight:regular;font-size:11.34pt;">&#39;\n&#39;</text>
</g>
<!-- 5R6 -->
<g id="node27" class="node"><title>5R6</title>
<polygon style="fill:#b2df8a;stroke:black;" points="532,-48 502.846,-24 532,-3.55271e-15 561.154,-24 532,-48"/>
<text text-anchor="middle" x="532" y="-18" style="font-family:Nimbus Mono L;font-weight:regular;font-size:11.34pt;">R6</text>
</g>
<!-- 5&#45;&gt;5R6 -->
<g id="edge26" class="edge"><title>5&#45;&gt;5R6</title>
<path style="fill:none;stroke:black;" d="M532,-118C532,-100 532,-77 532,-58"/>
<polygon style="fill:black;stroke:black;" points="535.5,-58 532,-48 528.5,-58 535.5,-58"/>
</g>
<!-- 6R3 -->
<g id="node29" class="node"><title>6R3</title>
<polygon style="fill:#b2df8a;stroke:black;" points="317,-730 287.846,-706 317,-682 346.154,-706 317,-730"/>
<text text-anchor="middle" x="317" y="-700" style="font-family:Nimbus Mono L;font-weight:regular;font-size:11.34pt;">R3</text>
</g>
<!-- 6&#45;&gt;6R3 -->
<g id="edge28" class="edge"><title>6&#45;&gt;6R3</title>
<path style="fill:none;stroke:black;" d="M379,-818C372,-812 365,-806 360,-800 345,-780 333,-755 326,-735"/>
<polygon style="fill:black;stroke:black;" points="329.226,-733.573 323,-725 322.521,-735.584 329.226,-733.573"/>
</g>
<!-- 7&#45;&gt;5 -->
<g id="edge30" class="edge"><title>7&#45;&gt;5</title>
<path style="fill:none;stroke:black;" d="M585,-820C518,-802 439,-778 427,-766 348,-681 366,-628 366,-512 366,-512 366,-512 366,-286 366,-237 409,-202 450,-179"/>
<polygon style="fill:black;stroke:black;" points="451.958,-181.916 459,-174 448.559,-175.797 451.958,-181.916"/>
<a xlink:title="NUMBER">
</a>
<a xlink:title="NUMBER">
</a>
<text text-anchor="middle" x="390" y="-506" style="font-family:Nimbus Mono L;font-weight:regular;font-size:11.34pt;">NUMBER</text>
</g>
<!-- 7&#45;&gt;7 -->
<g id="edge32" class="edge"><title>7&#45;&gt;7</title>
<path style="fill:none;stroke:black;" d="M777,-863C788,-860 795,-854 795,-846 795,-841 792,-836 786,-833"/>
<polygon style="fill:black;stroke:black;" points="787.56,-829.863 777,-829 784.717,-836.26 787.56,-829.863"/>
<a xlink:title="&#39;(&#39;">
</a>
<a xlink:title="&#39;(&#39;">
</a>
<text text-anchor="middle" x="807" y="-840" style="font-family:Nimbus Mono L;font-weight:regular;font-size:11.34pt;">&#39;(&#39;</text>
</g>
<!-- 10 -->
<g id="node33" class="node"><title>10</title>
<polygon style="fill:none;stroke:black;" points="798,-766 606,-766 606,-646 798,-646 798,-766"/>
<text text-anchor="middle" x="702" y="-748" style="font-family:Nimbus Mono L;font-weight:regular;font-size:11.34pt;">State 10</text>
<text text-anchor="start" x="614" y="-716" style="font-family:Nimbus Mono L;font-weight:regular;font-size:11.34pt;">  7 exp: exp . &#39;+&#39; exp</text>
<text text-anchor="start" x="614" y="-700" style="font-family:Nimbus Mono L;font-weight:regular;font-size:11.34pt;">  8    | exp . &#39;&#45;&#39; exp</text>
<text text-anchor="start" x="614" y="-684" style="font-family:Nimbus Mono L;font-weight:regular;font-size:11.34pt;">  9    | exp . &#39;*&#39; exp</text>
<text text-anchor="start" x="614" y="-668" style="font-family:Nimbus Mono L;font-weight:regular;font-size:11.34pt;"> 10    | exp . &#39;/&#39; exp</text>
<text text-anchor="start" x="614" y="-652" style="font-family:Nimbus Mono L;font-weight:regular;font-size:11.34pt;"> 11    | &#39;(&#39; exp . &#39;)&#39;</text>
</g>
<!-- 7&#45;&gt;10 -->
<g id="edge34" class="edge"><title>7&#45;&gt;10</title>
<path style="fill:none;stroke:black;stroke-dasharray:5,2;" d="M685,-818C687,-806 689,-791 691,-776"/>
<polygon style="fill:black;stroke:black;" points="694.471,-776.492 693,-766 687.607,-775.119 694.471,-776.492"/>
<a xlink:title="exp">
</a>
<a xlink:title="exp">
</a>
<text text-anchor="middle" x="703" y="-786" style="font-family:Nimbus Mono L;font-weight:regular;font-size:11.34pt;">exp</text>
</g>
<!-- 11 -->
<g id="node35" class="node"><title>11</title>
<polygon style="fill:none;stroke:black;" points="646,-594 454,-594 454,-538 646,-538 646,-594"/>
<text text-anchor="middle" x="550" y="-576" style="font-family:Nimbus Mono L;font-weight:regular;font-size:11.34pt;">State 11</text>
<text text-anchor="start" x="462" y="-544" style="font-family:Nimbus Mono L;font-weight:regular;font-size:11.34pt;">  7 exp: exp &#39;+&#39; . exp</text>
</g>
<!-- 8&#45;&gt;11 -->
<g id="edge36" class="edge"><title>8&#45;&gt;11</title>
<path style="fill:none;stroke:black;" d="M956,-667C927,-659 896,-652 868,-646 815,-635 797,-651 749,-628 740,-623 742,-616 732,-612 709,-599 682,-589 656,-582"/>
<polygon style="fill:black;stroke:black;" points="656.492,-578.529 646,-580 655.119,-585.393 656.492,-578.529"/>
<a xlink:title="&#39;+&#39;">
</a>
<a xlink:title="&#39;+&#39;">
</a>
<text text-anchor="middle" x="766" y="-614" style="font-family:Nimbus Mono L;font-weight:regular;font-size:11.34pt;">&#39;+&#39;</text>
</g>
<!-- 12 -->
<g id="node37" class="node"><title>12</title>
<polygon style="fill:none;stroke:black;" points="1142,-594 950,-594 950,-538 1142,-538 1142,-594"/>
<text text-anchor="middle" x="1046" y="-576" style="font-family:Nimbus Mono L;font-weight:regular;font-size:11.34pt;">State 12</text>
<text text-anchor="start" x="958" y="-544" style="font-family:Nimbus Mono L;font-weight:regular;font-size:11.34pt;">  8 exp: exp &#39;&#45;&#39; . exp</text>
</g>
<!-- 8&#45;&gt;12 -->
<g id="edge38" class="edge"><title>8&#45;&gt;12</title>
<path style="fill:none;stroke:black;" d="M1075,-646C1069,-632 1064,-617 1060,-604"/>
<polygon style="fill:black;stroke:black;" points="1062.96,-601.985 1056,-594 1056.46,-604.585 1062.96,-601.985"/>
<a xlink:title="&#39;&#45;&#39;">
</a>
<a xlink:title="&#39;&#45;&#39;">
</a>
<text text-anchor="middle" x="1079" y="-614" style="font-family:Nimbus Mono L;font-weight:regular;font-size:11.34pt;">&#39;&#45;&#39;</text>
</g>
<!-- 13 -->
<g id="node39" class="node"><title>13</title>
<polygon style="fill:none;stroke:black;" points="821,-314 629,-314 629,-258 821,-258 821,-314"/>
<text text-anchor="middle" x="725" y="-296" style="font-family:Nimbus Mono L;font-weight:regular;font-size:11.34pt;">State 13</text>
<text text-anchor="start" x="637" y="-264" style="font-family:Nimbus Mono L;font-weight:regular;font-size:11.34pt;">  9 exp: exp &#39;*&#39; . exp</text>
</g>
<!-- 8&#45;&gt;13 -->
<g id="edge40" class="edge"><title>8&#45;&gt;13</title>
<path style="fill:none;stroke:black;" d="M1002,-646C981,-630 959,-613 941,-594 920,-572 922,-560 903,-538 895,-529 889,-529 884,-520 839,-445 888,-394 828,-332 824,-328 819,-323 814,-320"/>
<polygon style="fill:black;stroke:black;" points="815.262,-316.635 805,-314 811.379,-322.459 815.262,-316.635"/>
<a xlink:title="&#39;*&#39;">
</a>
<a xlink:title="&#39;*&#39;">
</a>
<text text-anchor="middle" x="896" y="-506" style="font-family:Nimbus Mono L;font-weight:regular;font-size:11.34pt;">&#39;*&#39;</text>
</g>
<!-- 14 -->
<g id="node41" class="node"><title>14</title>
<polygon style="fill:none;stroke:black;" points="1266,-314 1074,-314 1074,-258 1266,-258 1266,-314"/>
<text text-anchor="middle" x="1170" y="-296" style="font-family:Nimbus Mono L;font-weight:regular;font-size:11.34pt;">State 14</text>
<text text-anchor="start" x="1082" y="-264" style="font-family:Nimbus Mono L;font-weight:regular;font-size:11.34pt;"> 10 exp: exp &#39;/&#39; . exp</text>
</g>
<!-- 8&#45;&gt;14 -->
<g id="edge42" class="edge"><title>8&#45;&gt;14</title>
<path style="fill:none;stroke:black;" d="M1152,-646C1164,-630 1176,-612 1184,-594 1223,-503 1199,-384 1182,-324"/>
<polygon style="fill:black;stroke:black;" points="1185.23,-322.573 1179,-314 1178.52,-324.584 1185.23,-322.573"/>
<a xlink:title="&#39;/&#39;">
</a>
<a xlink:title="&#39;/&#39;">
</a>
<text text-anchor="middle" x="1215" y="-506" style="font-family:Nimbus Mono L;font-weight:regular;font-size:11.34pt;">&#39;/&#39;</text>
</g>
<!-- 15 -->
<g id="node43" class="node"><title>15</title>
<polygon style="fill:none;stroke:black;" points="1521,-594 1241,-594 1241,-538 1521,-538 1521,-594"/>
<text text-anchor="middle" x="1381" y="-576" style="font-family:Nimbus Mono L;font-weight:regular;font-size:11.34pt;">State 15</text>
<text text-anchor="start" x="1249" y="-544" style="font-family:Nimbus Mono L;font-weight:regular;font-size:11.34pt;">  4 stmtlist: stmtlist exp &#39;\n&#39; .</text>
</g>
<!-- 8&#45;&gt;15 -->
<g id="edge44" class="edge"><title>8&#45;&gt;15</title>
<path style="fill:none;stroke:black;" d="M1219,-646C1252,-630 1287,-613 1315,-599"/>
<polygon style="fill:black;stroke:black;" points="1316.96,-601.916 1324,-594 1313.56,-595.797 1316.96,-601.916"/>
<a xlink:title="&#39;\\n&#39;">
</a>
<a xlink:title="&#39;\\n&#39;">
</a>
<text text-anchor="middle" x="1296" y="-614" style="font-family:Nimbus Mono L;font-weight:regular;font-size:11.34pt;">&#39;\n&#39;</text>
</g>
<!-- 9R5 -->
<g id="node45" class="node"><title>9R5</title>
<polygon style="fill:#b2df8a;stroke:black;" points="1733,-590 1703.85,-566 1733,-542 1762.15,-566 1733,-590"/>
<text text-anchor="middle" x="1733" y="-560" style="font-family:Nimbus Mono L;font-weight:regular;font-size:11.34pt;">R5</text>
</g>
<!-- 9&#45;&gt;9R5 -->
<g id="edge46" class="edge"><title>9&#45;&gt;9R5</title>
<path style="fill:none;stroke:black;" d="M1733,-678C1733,-655 1733,-624 1733,-600"/>
<polygon style="fill:black;stroke:black;" points="1736.5,-600 1733,-590 1729.5,-600 1736.5,-600"/>
</g>
<!-- 10&#45;&gt;11 -->
<g id="edge48" class="edge"><title>10&#45;&gt;11</title>
<path style="fill:none;stroke:black;" d="M637,-646C620,-631 603,-615 588,-601"/>
<polygon style="fill:black;stroke:black;" points="590.546,-598.596 581,-594 585.596,-603.546 590.546,-598.596"/>
<a xlink:title="&#39;+&#39;">
</a>
<a xlink:title="&#39;+&#39;">
</a>
<text text-anchor="middle" x="630" y="-614" style="font-family:Nimbus Mono L;font-weight:regular;font-size:11.34pt;">&#39;+&#39;</text>
</g>
<!-- 10&#45;&gt;12 -->
<g id="edge50" class="edge"><title>10&#45;&gt;12</title>
<path style="fill:none;stroke:black;" d="M760,-646C776,-630 792,-617 802,-612 842,-591 858,-602 903,-594 915,-592 927,-589 940,-587"/>
<polygon style="fill:black;stroke:black;" points="940.881,-590.393 950,-585 939.508,-583.529 940.881,-590.393"/>
<a xlink:title="&#39;&#45;&#39;">
</a>
<a xlink:title="&#39;&#45;&#39;">
</a>
<text text-anchor="middle" x="814" y="-614" style="font-family:Nimbus Mono L;font-weight:regular;font-size:11.34pt;">&#39;&#45;&#39;</text>
</g>
<!-- 10&#45;&gt;13 -->
<g id="edge52" class="edge"><title>10&#45;&gt;13</title>
<path style="fill:none;stroke:black;" d="M697,-646C695,-629 694,-611 693,-594 693,-569 692,-562 693,-538 699,-461 711,-374 719,-324"/>
<polygon style="fill:black;stroke:black;" points="722.488,-324.299 720,-314 715.522,-323.602 722.488,-324.299"/>
<a xlink:title="&#39;*&#39;">
</a>
<a xlink:title="&#39;*&#39;">
</a>
<text text-anchor="middle" x="709" y="-506" style="font-family:Nimbus Mono L;font-weight:regular;font-size:11.34pt;">&#39;*&#39;</text>
</g>
<!-- 10&#45;&gt;14 -->
<g id="edge54" class="edge"><title>10&#45;&gt;14</title>
<path style="fill:none;stroke:black;" d="M798,-647C799,-647 801,-646 802,-646 875,-619 1097,-651 1151,-594 1169,-574 1171,-402 1170,-324"/>
<polygon style="fill:black;stroke:black;" points="1173.5,-324 1170,-314 1166.5,-324 1173.5,-324"/>
<a xlink:title="&#39;/&#39;">
</a>
<a xlink:title="&#39;/&#39;">
</a>
<text text-anchor="middle" x="1176" y="-506" style="font-family:Nimbus Mono L;font-weight:regular;font-size:11.34pt;">&#39;/&#39;</text>
</g>
<!-- 16 -->
<g id="node51" class="node"><title>16</title>
<polygon style="fill:none;stroke:black;" points="894,-594 702,-594 702,-538 894,-538 894,-594"/>
<text text-anchor="middle" x="798" y="-576" style="font-family:Nimbus Mono L;font-weight:regular;font-size:11.34pt;">State 16</text>
<text text-anchor="start" x="710" y="-544" style="font-family:Nimbus Mono L;font-weight:regular;font-size:11.34pt;"> 11 exp: &#39;(&#39; exp &#39;)&#39; .</text>
</g>
<!-- 10&#45;&gt;16 -->
<g id="edge56" class="edge"><title>10&#45;&gt;16</title>
<path style="fill:none;stroke:black;" d="M697,-646C698,-634 702,-622 708,-612 710,-608 713,-604 717,-601"/>
<polygon style="fill:black;stroke:black;" points="719.779,-603.219 725,-594 715.169,-597.951 719.779,-603.219"/>
<a xlink:title="&#39;)&#39;">
</a>
<a xlink:title="&#39;)&#39;">
</a>
<text text-anchor="middle" x="720" y="-614" style="font-family:Nimbus Mono L;font-weight:regular;font-size:11.34pt;">&#39;)&#39;</text>
</g>
<!-- 11&#45;&gt;5 -->
<g id="edge58" class="edge"><title>11&#45;&gt;5</title>
<path style="fill:none;stroke:black;" d="M520,-538C507,-524 493,-505 486,-486 450,-380 492,-248 516,-183"/>
<polygon style="fill:black;stroke:black;" points="519.137,-184.56 520,-174 512.74,-181.717 519.137,-184.56"/>
<a xlink:title="NUMBER">
</a>
<a xlink:title="NUMBER">
</a>
<text text-anchor="middle" x="501" y="-334" style="font-family:Nimbus Mono L;font-weight:regular;font-size:11.34pt;">NUMBER</text>
</g>
<!-- 11&#45;&gt;7 -->
<g id="edge60" class="edge"><title>11&#45;&gt;7</title>
<path style="fill:none;stroke:black;" d="M547,-594C543,-635 542,-711 573,-766 584,-784 601,-800 618,-812"/>
<polygon style="fill:black;stroke:black;" points="616.738,-815.365 627,-818 620.621,-809.541 616.738,-815.365"/>
<a xlink:title="&#39;(&#39;">
</a>
<a xlink:title="&#39;(&#39;">
</a>
<text text-anchor="middle" x="588" y="-700" style="font-family:Nimbus Mono L;font-weight:regular;font-size:11.34pt;">&#39;(&#39;</text>
</g>
<!-- 17 -->
<g id="node55" class="node"><title>17</title>
<polygon style="fill:none;stroke:black;" points="687,-486 495,-486 495,-366 687,-366 687,-486"/>
<text text-anchor="middle" x="591" y="-468" style="font-family:Nimbus Mono L;font-weight:regular;font-size:11.34pt;">State 17</text>
<text text-anchor="start" x="503" y="-436" style="font-family:Nimbus Mono L;font-weight:regular;font-size:11.34pt;">  7 exp: exp . &#39;+&#39; exp</text>
<text text-anchor="start" x="503" y="-420" style="font-family:Nimbus Mono L;font-weight:regular;font-size:11.34pt;">  7    | exp &#39;+&#39; exp .</text>
<text text-anchor="start" x="503" y="-404" style="font-family:Nimbus Mono L;font-weight:regular;font-size:11.34pt;">  8    | exp . &#39;&#45;&#39; exp</text>
<text text-anchor="start" x="503" y="-388" style="font-family:Nimbus Mono L;font-weight:regular;font-size:11.34pt;">  9    | exp . &#39;*&#39; exp</text>
<text text-anchor="start" x="503" y="-372" style="font-family:Nimbus Mono L;font-weight:regular;font-size:11.34pt;"> 10    | exp . &#39;/&#39; exp</text>
</g>
<!-- 11&#45;&gt;17 -->
<g id="edge62" class="edge"><title>11&#45;&gt;17</title>
<path style="fill:none;stroke:black;stroke-dasharray:5,2;" d="M558,-538C561,-526 566,-511 570,-496"/>
<polygon style="fill:black;stroke:black;" points="573.479,-496.584 573,-486 566.774,-494.573 573.479,-496.584"/>
<a xlink:title="exp">
</a>
<a xlink:title="exp">
</a>
<text text-anchor="middle" x="580" y="-506" style="font-family:Nimbus Mono L;font-weight:regular;font-size:11.34pt;">exp</text>
</g>
<!-- 12&#45;&gt;5 -->
<g id="edge64" class="edge"><title>12&#45;&gt;5</title>
<path style="fill:none;stroke:black;" d="M996,-538C976,-524 955,-507 941,-486 901,-427 934,-393 900,-332 877,-292 867,-283 830,-258 765,-214 680,-184 618,-167"/>
<polygon style="fill:black;stroke:black;" points="618.584,-163.521 608,-164 616.573,-170.226 618.584,-163.521"/>
<a xlink:title="NUMBER">
</a>
<a xlink:title="NUMBER">
</a>
<text text-anchor="middle" x="931" y="-334" style="font-family:Nimbus Mono L;font-weight:regular;font-size:11.34pt;">NUMBER</text>
</g>
<!-- 12&#45;&gt;7 -->
<g id="edge66" class="edge"><title>12&#45;&gt;7</title>
<path style="fill:none;stroke:black;" d="M997,-594C974,-608 946,-627 923,-646 865,-693 864,-719 807,-766 786,-783 761,-800 739,-813"/>
<polygon style="fill:black;stroke:black;" points="737.042,-810.084 730,-818 740.441,-816.203 737.042,-810.084"/>
<a xlink:title="&#39;(&#39;">
</a>
<a xlink:title="&#39;(&#39;">
</a>
<text text-anchor="middle" x="935" y="-700" style="font-family:Nimbus Mono L;font-weight:regular;font-size:11.34pt;">&#39;(&#39;</text>
</g>
<!-- 18 -->
<g id="node59" class="node"><title>18</title>
<polygon style="fill:none;stroke:black;" points="1142,-486 950,-486 950,-366 1142,-366 1142,-486"/>
<text text-anchor="middle" x="1046" y="-468" style="font-family:Nimbus Mono L;font-weight:regular;font-size:11.34pt;">State 18</text>
<text text-anchor="start" x="958" y="-436" style="font-family:Nimbus Mono L;font-weight:regular;font-size:11.34pt;">  7 exp: exp . &#39;+&#39; exp</text>
<text text-anchor="start" x="958" y="-420" style="font-family:Nimbus Mono L;font-weight:regular;font-size:11.34pt;">  8    | exp . &#39;&#45;&#39; exp</text>
<text text-anchor="start" x="958" y="-404" style="font-family:Nimbus Mono L;font-weight:regular;font-size:11.34pt;">  8    | exp &#39;&#45;&#39; exp .</text>
<text text-anchor="start" x="958" y="-388" style="font-family:Nimbus Mono L;font-weight:regular;font-size:11.34pt;">  9    | exp . &#39;*&#39; exp</text>
<text text-anchor="start" x="958" y="-372" style="font-family:Nimbus Mono L;font-weight:regular;font-size:11.34pt;"> 10    | exp . &#39;/&#39; exp</text>
</g>
<!-- 12&#45;&gt;18 -->
<g id="edge68" class="edge"><title>12&#45;&gt;18</title>
<path style="fill:none;stroke:black;stroke-dasharray:5,2;" d="M1046,-538C1046,-526 1046,-511 1046,-496"/>
<polygon style="fill:black;stroke:black;" points="1049.5,-496 1046,-486 1042.5,-496 1049.5,-496"/>
<a xlink:title="exp">
</a>
<a xlink:title="exp">
</a>
<text text-anchor="middle" x="1058" y="-506" style="font-family:Nimbus Mono L;font-weight:regular;font-size:11.34pt;">exp</text>
</g>
<!-- 13&#45;&gt;5 -->
<g id="edge70" class="edge"><title>13&#45;&gt;5</title>
<path style="fill:none;stroke:black;" d="M686,-258C656,-236 612,-204 579,-180"/>
<polygon style="fill:black;stroke:black;" points="581.1,-177.2 571,-174 576.9,-182.8 581.1,-177.2"/>
<a xlink:title="NUMBER">
</a>
<a xlink:title="NUMBER">
</a>
<text text-anchor="middle" x="688" y="-226" style="font-family:Nimbus Mono L;font-weight:regular;font-size:11.34pt;">NUMBER</text>
</g>
<!-- 13&#45;&gt;7 -->
<g id="edge72" class="edge"><title>13&#45;&gt;7</title>
<path style="fill:none;stroke:black;" d="M629,-312C626,-313 623,-313 620,-314 588,-320 496,-309 471,-332 401,-394 433,-444 421,-538 405,-674 469,-726 584,-800 591,-804 600,-809 608,-813"/>
<polygon style="fill:black;stroke:black;" points="606.559,-816.203 617,-818 609.958,-810.084 606.559,-816.203"/>
<a xlink:title="&#39;(&#39;">
</a>
<a xlink:title="&#39;(&#39;">
</a>
<text text-anchor="middle" x="433" y="-560" style="font-family:Nimbus Mono L;font-weight:regular;font-size:11.34pt;">&#39;(&#39;</text>
</g>
<!-- 19 -->
<g id="node63" class="node"><title>19</title>
<polygon style="fill:none;stroke:black;" points="1051,-206 859,-206 859,-86 1051,-86 1051,-206"/>
<text text-anchor="middle" x="955" y="-188" style="font-family:Nimbus Mono L;font-weight:regular;font-size:11.34pt;">State 19</text>
<text text-anchor="start" x="867" y="-156" style="font-family:Nimbus Mono L;font-weight:regular;font-size:11.34pt;">  7 exp: exp . &#39;+&#39; exp</text>
<text text-anchor="start" x="867" y="-140" style="font-family:Nimbus Mono L;font-weight:regular;font-size:11.34pt;">  8    | exp . &#39;&#45;&#39; exp</text>
<text text-anchor="start" x="867" y="-124" style="font-family:Nimbus Mono L;font-weight:regular;font-size:11.34pt;">  9    | exp . &#39;*&#39; exp</text>
<text text-anchor="start" x="867" y="-108" style="font-family:Nimbus Mono L;font-weight:regular;font-size:11.34pt;">  9    | exp &#39;*&#39; exp .</text>
<text text-anchor="start" x="867" y="-92" style="font-family:Nimbus Mono L;font-weight:regular;font-size:11.34pt;"> 10    | exp . &#39;/&#39; exp</text>
</g>
<!-- 13&#45;&gt;19 -->
<g id="edge74" class="edge"><title>13&#45;&gt;19</title>
<path style="fill:none;stroke:black;stroke-dasharray:5,2;" d="M771,-258C794,-244 822,-227 850,-210"/>
<polygon style="fill:black;stroke:black;" points="851.958,-212.916 859,-205 848.559,-206.797 851.958,-212.916"/>
<a xlink:title="exp">
</a>
<a xlink:title="exp">
</a>
<text text-anchor="middle" x="830" y="-226" style="font-family:Nimbus Mono L;font-weight:regular;font-size:11.34pt;">exp</text>
</g>
<!-- 14&#45;&gt;5 -->
<g id="edge76" class="edge"><title>14&#45;&gt;5</title>
<path style="fill:none;stroke:black;" d="M1074,-260C1071,-259 1068,-259 1065,-258 908,-220 724,-183 618,-162"/>
<polygon style="fill:black;stroke:black;" points="618.492,-158.529 608,-160 617.119,-165.393 618.492,-158.529"/>
<a xlink:title="NUMBER">
</a>
<a xlink:title="NUMBER">
</a>
<text text-anchor="middle" x="1015" y="-226" style="font-family:Nimbus Mono L;font-weight:regular;font-size:11.34pt;">NUMBER</text>
</g>
<!-- 14&#45;&gt;7 -->
<g id="edge78" class="edge"><title>14&#45;&gt;7</title>
<path style="fill:none;stroke:black;" d="M1266,-301C1381,-322 1557,-364 1557,-426 1557,-706 1557,-706 1557,-706 1557,-871 984,-791 821,-818 810,-820 799,-822 787,-824"/>
<polygon style="fill:black;stroke:black;" points="786.119,-820.607 777,-826 787.492,-827.471 786.119,-820.607"/>
<a xlink:title="&#39;(&#39;">
</a>
<a xlink:title="&#39;(&#39;">
</a>
<text text-anchor="middle" x="1569" y="-560" style="font-family:Nimbus Mono L;font-weight:regular;font-size:11.34pt;">&#39;(&#39;</text>
</g>
<!-- 20 -->
<g id="node67" class="node"><title>20</title>
<polygon style="fill:none;stroke:black;" points="1266,-206 1074,-206 1074,-86 1266,-86 1266,-206"/>
<text text-anchor="middle" x="1170" y="-188" style="font-family:Nimbus Mono L;font-weight:regular;font-size:11.34pt;">State 20</text>
<text text-anchor="start" x="1082" y="-156" style="font-family:Nimbus Mono L;font-weight:regular;font-size:11.34pt;">  7 exp: exp . &#39;+&#39; exp</text>
<text text-anchor="start" x="1082" y="-140" style="font-family:Nimbus Mono L;font-weight:regular;font-size:11.34pt;">  8    | exp . &#39;&#45;&#39; exp</text>
<text text-anchor="start" x="1082" y="-124" style="font-family:Nimbus Mono L;font-weight:regular;font-size:11.34pt;">  9    | exp . &#39;*&#39; exp</text>
<text text-anchor="start" x="1082" y="-108" style="font-family:Nimbus Mono L;font-weight:regular;font-size:11.34pt;"> 10    | exp . &#39;/&#39; exp</text>
<text text-anchor="start" x="1082" y="-92" style="font-family:Nimbus Mono L;font-weight:regular;font-size:11.34pt;"> 10    | exp &#39;/&#39; exp .</text>
</g>
<!-- 14&#45;&gt;20 -->
<g id="edge80" class="edge"><title>14&#45;&gt;20</title>
<path style="fill:none;stroke:black;stroke-dasharray:5,2;" d="M1170,-258C1170,-246 1170,-231 1170,-216"/>
<polygon style="fill:black;stroke:black;" points="1173.5,-216 1170,-206 1166.5,-216 1173.5,-216"/>
<a xlink:title="exp">
</a>
<a xlink:title="exp">
</a>
<text text-anchor="middle" x="1182" y="-226" style="font-family:Nimbus Mono L;font-weight:regular;font-size:11.34pt;">exp</text>
</g>
<!-- 15R4 -->
<g id="node69" class="node"><title>15R4</title>
<polygon style="fill:#b2df8a;stroke:black;" points="1381,-450 1351.85,-426 1381,-402 1410.15,-426 1381,-450"/>
<text text-anchor="middle" x="1381" y="-420" style="font-family:Nimbus Mono L;font-weight:regular;font-size:11.34pt;">R4</text>
</g>
<!-- 15&#45;&gt;15R4 -->
<g id="edge82" class="edge"><title>15&#45;&gt;15R4</title>
<path style="fill:none;stroke:black;" d="M1381,-538C1381,-515 1381,-484 1381,-460"/>
<polygon style="fill:black;stroke:black;" points="1384.5,-460 1381,-450 1377.5,-460 1384.5,-460"/>
</g>
<!-- 16R11 -->
<g id="node71" class="node"><title>16R11</title>
<polygon style="fill:#b2df8a;stroke:black;" points="798,-450 763.184,-426 798,-402 832.816,-426 798,-450"/>
<text text-anchor="middle" x="798" y="-420" style="font-family:Nimbus Mono L;font-weight:regular;font-size:11.34pt;">R11</text>
</g>
<!-- 16&#45;&gt;16R11 -->
<g id="edge84" class="edge"><title>16&#45;&gt;16R11</title>
<path style="fill:none;stroke:black;" d="M798,-538C798,-515 798,-484 798,-460"/>
<polygon style="fill:black;stroke:black;" points="801.5,-460 798,-450 794.5,-460 801.5,-460"/>
</g>
<!-- 17&#45;&gt;13 -->
<g id="edge86" class="edge"><title>17&#45;&gt;13</title>
<path style="fill:none;stroke:black;" d="M645,-366C656,-354 667,-343 677,-332 681,-328 684,-325 688,-321"/>
<polygon style="fill:black;stroke:black;" points="690.404,-323.546 695,-314 685.454,-318.596 690.404,-323.546"/>
<a xlink:title="&#39;*&#39;">
</a>
<a xlink:title="&#39;*&#39;">
</a>
<text text-anchor="middle" x="689" y="-334" style="font-family:Nimbus Mono L;font-weight:regular;font-size:11.34pt;">&#39;*&#39;</text>
</g>
<!-- 17&#45;&gt;14 -->
<g id="edge88" class="edge"><title>17&#45;&gt;14</title>
<path style="fill:none;stroke:black;" d="M687,-380C729,-362 778,-343 825,-332 926,-308 957,-330 1064,-314"/>
<polygon style="fill:black;stroke:black;" points="1064.88,-317.393 1074,-312 1063.51,-310.529 1064.88,-317.393"/>
<a xlink:title="&#39;/&#39;">
</a>
<a xlink:title="&#39;/&#39;">
</a>
<text text-anchor="middle" x="837" y="-334" style="font-family:Nimbus Mono L;font-weight:regular;font-size:11.34pt;">&#39;/&#39;</text>
</g>
<!-- 17R7 -->
<g id="node75" class="node"><title>17R7</title>
<polygon style="fill:#b2df8a;stroke:black;" points="582,-310 552.846,-286 582,-262 611.154,-286 582,-310"/>
<text text-anchor="middle" x="582" y="-280" style="font-family:Nimbus Mono L;font-weight:regular;font-size:11.34pt;">R7</text>
</g>
<!-- 17&#45;&gt;17R7 -->
<g id="edge90" class="edge"><title>17&#45;&gt;17R7</title>
<path style="fill:none;stroke:black;" d="M587,-366C586,-350 585,-333 585,-319"/>
<polygon style="fill:black;stroke:black;" points="588.478,-318.602 584,-309 581.512,-319.299 588.478,-318.602"/>
</g>
<!-- 18&#45;&gt;13 -->
<g id="edge92" class="edge"><title>18&#45;&gt;13</title>
<path style="fill:none;stroke:black;" d="M950,-385C925,-374 899,-361 876,-348 865,-341 864,-337 853,-332 843,-327 833,-322 822,-318"/>
<polygon style="fill:black;stroke:black;" points="823.56,-314.863 813,-314 820.717,-321.26 823.56,-314.863"/>
<a xlink:title="&#39;*&#39;">
</a>
<a xlink:title="&#39;*&#39;">
</a>
<text text-anchor="middle" x="891" y="-334" style="font-family:Nimbus Mono L;font-weight:regular;font-size:11.34pt;">&#39;*&#39;</text>
</g>
<!-- 18&#45;&gt;14 -->
<g id="edge94" class="edge"><title>18&#45;&gt;14</title>
<path style="fill:none;stroke:black;" d="M1099,-366C1112,-351 1126,-335 1138,-322"/>
<polygon style="fill:black;stroke:black;" points="1141.05,-323.831 1145,-314 1135.78,-319.221 1141.05,-323.831"/>
<a xlink:title="&#39;/&#39;">
</a>
<a xlink:title="&#39;/&#39;">
</a>
<text text-anchor="middle" x="1138" y="-334" style="font-family:Nimbus Mono L;font-weight:regular;font-size:11.34pt;">&#39;/&#39;</text>
</g>
<!-- 18R8 -->
<g id="node79" class="node"><title>18R8</title>
<polygon style="fill:#b2df8a;stroke:black;" points="1027,-310 997.846,-286 1027,-262 1056.15,-286 1027,-310"/>
<text text-anchor="middle" x="1027" y="-280" style="font-family:Nimbus Mono L;font-weight:regular;font-size:11.34pt;">R8</text>
</g>
<!-- 18&#45;&gt;18R8 -->
<g id="edge96" class="edge"><title>18&#45;&gt;18R8</title>
<path style="fill:none;stroke:black;" d="M1038,-366C1036,-349 1033,-332 1031,-318"/>
<polygon style="fill:black;stroke:black;" points="1034.48,-317.602 1030,-308 1027.51,-318.299 1034.48,-317.602"/>
</g>
<!-- 19R9 -->
<g id="node81" class="node"><title>19R9</title>
<polygon style="fill:#b2df8a;stroke:black;" points="955,-48 925.846,-24 955,-3.55271e-15 984.154,-24 955,-48"/>
<text text-anchor="middle" x="955" y="-18" style="font-family:Nimbus Mono L;font-weight:regular;font-size:11.34pt;">R9</text>
</g>
<!-- 19&#45;&gt;19R9 -->
<g id="edge98" class="edge"><title>19&#45;&gt;19R9</title>
<path style="fill:none;stroke:black;" d="M955,-86C955,-77 955,-67 955,-58"/>
<polygon style="fill:black;stroke:black;" points="958.5,-58 955,-48 951.5,-58 958.5,-58"/>
</g>
<!-- 20R10 -->
<g id="node83" class="node"><title>20R10</title>
<polygon style="fill:#b2df8a;stroke:black;" points="1170,-48 1135.18,-24 1170,-3.55271e-15 1204.82,-24 1170,-48"/>
<text text-anchor="middle" x="1170" y="-18" style="font-family:Nimbus Mono L;font-weight:regular;font-size:11.34pt;">R10</text>
</g>
<!-- 20&#45;&gt;20R10 -->
<g id="edge100" class="edge"><title>20&#45;&gt;20R10</title>
<path style="fill:none;stroke:black;" d="M1170,-86C1170,-77 1170,-67 1170,-58"/>
<polygon style="fill:black;stroke:black;" points="1173.5,-58 1170,-48 1166.5,-58 1173.5,-58"/>
</g>
</g>
</svg>
